REM DIRINDEX 1\2,1\3,1\4,1\5
REM DIRNAME "folder01","folder02","folder03","folder04","folder05"
TITLE ""
FILE "P1Q_t_1449-1458.mp3" MP3
  TRACK 01 AUDIO
    TITLE "3:cjc173_5322"
    INDEX 01 00:00:00
  TRACK 02 AUDIO
    TITLE "0:"
    INDEX 01 00:01:04
  TRACK 03 AUDIO
    TITLE "4:cjc173_5323"
    INDEX 01 00:01:25
  TRACK 04 AUDIO
    TITLE "0:"
    INDEX 01 00:03:63
  TRACK 05 AUDIO
    TITLE "5:cjc173_5324"
    INDEX 01 00:04:06
  TRACK 06 AUDIO
    TITLE "0:"
    INDEX 01 00:08:00
  TRACK 07 AUDIO
    TITLE "3:cjc173_5325"
    INDEX 01 00:08:45
  TRACK 08 AUDIO
    TITLE "0:"
    INDEX 01 00:09:68
  TRACK 09 AUDIO
    TITLE "4:cjc173_5326"
    INDEX 01 00:10:13
  TRACK 10 AUDIO
    TITLE "0:"
    INDEX 01 00:11:16
  TRACK 11 AUDIO
    TITLE "5:cjc173_5327"
    INDEX 01 00:11:36
  TRACK 12 AUDIO
    TITLE "0:"
    INDEX 01 00:16:62
  TRACK 13 AUDIO
    TITLE "3:cjc173_5328"
    INDEX 01 00:17:32
  TRACK 14 AUDIO
    TITLE "0:"
    INDEX 01 00:18:42
  TRACK 15 AUDIO
    TITLE "4:cjc173_5329"
    INDEX 01 00:18:63
  TRACK 16 AUDIO
    TITLE "0:"
    INDEX 01 00:21:03
  TRACK 17 AUDIO
    TITLE "5:cjc173_5330"
    INDEX 01 00:21:20
  TRACK 18 AUDIO
    TITLE "0:"
    INDEX 01 00:25:67
  TRACK 19 AUDIO
    TITLE "3:cjc173_5331"
    INDEX 01 00:26:35
  TRACK 20 AUDIO
    TITLE "0:"
    INDEX 01 00:27:42
  TRACK 21 AUDIO
    TITLE "4:cjc173_5332"
    INDEX 01 00:27:64
  TRACK 22 AUDIO
    TITLE "0:"
    INDEX 01 00:30:68
  TRACK 23 AUDIO
    TITLE "5:cjc173_5333"
    INDEX 01 00:31:13
  TRACK 24 AUDIO
    TITLE "0:"
    INDEX 01 00:35:71
  TRACK 25 AUDIO
    TITLE "3:cjc173_5334"
    INDEX 01 00:36:43
  TRACK 26 AUDIO
    TITLE "0:"
    INDEX 01 00:37:68
  TRACK 27 AUDIO
    TITLE "4:cjc173_5335"
    INDEX 01 00:38:15
  TRACK 28 AUDIO
    TITLE "0:"
    INDEX 01 00:41:54
  TRACK 29 AUDIO
    TITLE "5:cjc173_5336"
    INDEX 01 00:41:74
  TRACK 30 AUDIO
    TITLE "0:"
    INDEX 01 00:46:14
  TRACK 31 AUDIO
    TITLE "3:cjc173_5337"
    INDEX 01 00:46:57
  TRACK 32 AUDIO
    TITLE "0:"
    INDEX 01 00:48:05
  TRACK 33 AUDIO
    TITLE "4:cjc173_5338"
    INDEX 01 00:48:27
  TRACK 34 AUDIO
    TITLE "0:"
    INDEX 01 00:52:35
  TRACK 35 AUDIO
    TITLE "5:cjc173_5339"
    INDEX 01 00:52:52
  TRACK 36 AUDIO
    TITLE "0:"
    INDEX 01 00:56:64
  TRACK 37 AUDIO
    TITLE "3:cjc173_5340"
    INDEX 01 00:57:34
  TRACK 38 AUDIO
    TITLE "0:"
    INDEX 01 00:58:49
  TRACK 39 AUDIO
    TITLE "4:cjc173_5341"
    INDEX 01 00:58:70
  TRACK 40 AUDIO
    TITLE "0:"
    INDEX 01 01:02:45
  TRACK 41 AUDIO
    TITLE "5:cjc173_5342"
    INDEX 01 01:02:64
  TRACK 42 AUDIO
    TITLE "0:"
    INDEX 01 01:08:10
  TRACK 43 AUDIO
    TITLE "3:cjc173_5343"
    INDEX 01 01:08:57
  TRACK 44 AUDIO
    TITLE "0:"
    INDEX 01 01:10:25
  TRACK 45 AUDIO
    TITLE "4:cjc173_5344"
    INDEX 01 01:10:46
  TRACK 46 AUDIO
    TITLE "0:"
    INDEX 01 01:12:00
  TRACK 47 AUDIO
    TITLE "5:cjc173_5345"
    INDEX 01 01:12:20
  TRACK 48 AUDIO
    TITLE "0:"
    INDEX 01 01:18:38
  TRACK 49 AUDIO
    TITLE "3:cjc173_5346"
    INDEX 01 01:19:12
  TRACK 50 AUDIO
    TITLE "0:"
    INDEX 01 01:20:35
  TRACK 51 AUDIO
    TITLE "4:cjc173_5347"
    INDEX 01 01:20:58
  TRACK 52 AUDIO
    TITLE "0:"
    INDEX 01 01:24:70
  TRACK 53 AUDIO
    TITLE "5:cjc173_5348"
    INDEX 01 01:25:14
  TRACK 54 AUDIO
    TITLE "0:"
    INDEX 01 01:30:59
  TRACK 55 AUDIO
    TITLE "3:cjc173_5349"
    INDEX 01 01:31:27
  TRACK 56 AUDIO
    TITLE "0:"
    INDEX 01 01:32:36
  TRACK 57 AUDIO
    TITLE "4:cjc173_5350"
    INDEX 01 01:32:58
  TRACK 58 AUDIO
    TITLE "0:"
    INDEX 01 01:36:02
  TRACK 59 AUDIO
    TITLE "5:cjc173_5351"
    INDEX 01 01:36:22
  TRACK 60 AUDIO
    TITLE "0:"
    INDEX 01 01:40:22
